# Blender v2.79 (sub 0) OBJ File: ''
# www.blender.org
mtllib untitled.mtl
o Box1
v 0.500000 0.564600 -0.050000
v -0.500000 0.564600 -0.050000
v -0.500000 0.564600 0.050000
v 0.500000 0.564600 0.050000
v 0.000517 0.064600 0.050000
v 0.000517 0.064600 -0.050000
v 0.262331 1.491069 -0.053500
v -0.237651 1.495329 -0.053500
v -0.237651 1.495329 0.046500
v 0.262331 1.491069 0.046500
v 0.261851 1.434671 0.046500
v -0.238131 1.438931 0.046500
v -0.238131 1.438931 -0.053500
v 0.261851 1.434671 -0.053500
v 0.262331 1.398669 -0.053500
v -0.237651 1.402929 -0.053500
v -0.237651 1.402929 0.046500
v 0.262331 1.398669 0.046500
v 0.261851 1.342271 0.046500
v -0.238131 1.346531 0.046500
v -0.238131 1.346531 -0.053500
v 0.261851 1.342271 -0.053500
v 0.262777 1.084317 -0.053500
v -0.237205 1.088577 -0.053500
v -0.237205 1.088577 0.046500
v 0.262777 1.084317 0.046500
v 0.261405 0.923223 0.046500
v -0.238577 0.927483 0.046500
v -0.238577 0.927483 -0.053500
v 0.261405 0.923223 -0.053500
v 0.263319 0.887315 -0.053500
v -0.236663 0.891575 -0.053500
v -0.236663 0.891575 0.046500
v 0.263319 0.887315 0.046500
v 0.260863 0.599025 0.046500
v -0.239119 0.603285 0.046500
v -0.239119 0.603285 -0.053500
v 0.260863 0.599025 -0.053500
v 0.262331 1.313669 -0.053500
v -0.237651 1.317929 -0.053500
v -0.237651 1.317929 0.046500
v 0.262331 1.313669 0.046500
v 0.261851 1.257271 0.046500
v -0.238131 1.261531 0.046500
v -0.238131 1.261531 -0.053500
v 0.261851 1.257271 -0.053500
v 0.262511 1.223018 -0.053500
v -0.237470 1.227278 -0.053500
v -0.237470 1.227278 0.046500
v 0.262511 1.223018 0.046500
v 0.261670 1.124322 0.046500
v -0.238311 1.128582 0.046500
v -0.238311 1.128582 -0.053500
v 0.261670 1.124322 -0.053500
vt 0.746037 0.624983
vt 0.692300 0.000000
vt 0.746037 0.000000
vt 0.086571 0.940146
vt 0.140308 0.625000
vt 0.140308 0.940146
vt 0.746037 0.315474
vt 0.799775 0.000000
vt 0.799775 0.315474
vt 0.537374 0.000000
vt 0.537374 0.625000
vt 0.268687 0.312177
vt 0.000000 0.312823
vt 0.268687 0.000000
vt 0.268687 0.625000
vt 0.140308 0.625000
vt 0.194046 0.937499
vt 0.140309 0.937500
vt 0.194046 0.625000
vt 0.247784 0.937500
vt 0.194046 0.937500
vt 0.301521 0.999999
vt 0.271213 0.937499
vt 0.301521 0.937499
vt 0.798377 0.937483
vt 0.828685 0.999983
vt 0.798377 0.999983
vt 0.936859 0.312500
vt 0.906551 0.000000
vt 0.936859 0.000000
vt 0.969692 0.624983
vt 0.939384 0.937483
vt 0.939384 0.624983
vt 0.591112 0.937500
vt 0.537374 0.625000
vt 0.591112 0.625000
vt 0.301521 0.625000
vt 0.355259 0.937500
vt 0.301521 0.937500
vt 0.170616 1.000000
vt 0.140308 0.937500
vt 0.170616 0.937500
vt 0.000000 0.937500
vt 0.030308 1.000000
vt 0.000000 1.000000
vt 1.000000 0.937483
vt 0.969692 0.624983
vt 1.000000 0.624983
vt 0.967167 0.312500
vt 0.997475 0.000000
vt 0.997475 0.312500
vt 0.301521 0.937500
vt 0.247784 0.625000
vt 0.301521 0.625000
vt 0.355259 0.625000
vt 0.408996 0.937500
vt 0.355259 0.937500
vt 0.853512 0.495662
vt 0.799775 0.596349
vt 0.799775 0.495662
vt 0.746037 0.596349
vt 0.799775 0.495662
vt 0.799775 0.596349
vt 0.086571 0.937500
vt 0.000000 0.625000
vt 0.086571 0.625000
vt 0.778871 0.624983
vt 0.692300 0.937483
vt 0.692300 0.624983
vt 0.832608 0.937483
vt 0.778871 0.624983
vt 0.832608 0.624983
vt 0.408996 0.625000
vt 0.462733 0.937500
vt 0.408996 0.937500
vt 0.853512 0.312499
vt 0.799775 0.492687
vt 0.799775 0.312499
vt 0.746037 0.495662
vt 0.799775 0.315474
vt 0.799775 0.495662
vt 0.692300 0.312500
vt 0.537374 0.000000
vt 0.692300 0.000000
vt 0.537374 0.625000
vt 0.692300 0.312500
vt 0.692300 0.625000
vt 0.516471 0.937500
vt 0.462734 0.625000
vt 0.516471 0.625000
vt 0.591112 0.625000
vt 0.644849 0.937500
vt 0.591112 0.937500
vt 0.060616 1.000000
vt 0.030308 0.937500
vt 0.060616 0.937500
vt 0.828685 0.937483
vt 0.858993 0.999983
vt 0.828685 0.999983
vt 0.967167 0.312500
vt 0.936859 0.000000
vt 0.967167 0.000000
vt 0.644849 0.937500
vt 0.675157 0.625001
vt 0.675157 0.937501
vt 0.886345 0.937482
vt 0.832608 0.624983
vt 0.886345 0.624983
vt 0.799775 0.000000
vt 0.853512 0.312499
vt 0.799775 0.312499
vt 0.745338 0.937483
vt 0.798377 0.999983
vt 0.745338 0.999983
vt 0.692300 0.937483
vt 0.745338 0.999983
vt 0.692300 0.999983
vt 0.939384 0.624983
vt 0.906551 0.312499
vt 0.853512 0.000000
vt 0.906551 0.000000
vt 0.692300 0.624983
vt 0.086571 0.625000
vt 0.746037 0.000000
vt 0.194046 0.625000
vt 0.247784 0.625000
vt 0.271213 0.999999
vt 0.828685 0.937483
vt 0.906551 0.312500
vt 0.969692 0.937483
vt 0.537374 0.937500
vt 0.355259 0.625000
vt 0.140308 1.000000
vt 0.030308 0.937500
vt 0.969692 0.937483
vt 0.967167 0.000000
vt 0.247784 0.937499
vt 0.408996 0.625000
vt 0.853512 0.596349
vt 0.746037 0.495662
vt 0.000000 0.937500
vt 0.778871 0.937483
vt 0.778871 0.937483
vt 0.462733 0.625000
vt 0.853512 0.492687
vt 0.746037 0.315474
vt 0.537374 0.312500
vt 0.537374 0.312500
vt 0.462733 0.937499
vt 0.644849 0.625000
vt 0.030308 1.000000
vt 0.858993 0.937483
vt 0.936859 0.312500
vt 0.644849 0.625000
vt 0.832608 0.937482
vt 0.853512 0.000000
vt 0.798377 0.937483
vt 0.745338 0.937483
vt 0.939384 0.937482
vt 0.853512 0.312499
vn 0.0000 1.0000 0.0000
vn 0.7075 -0.7067 0.0000
vn -0.7067 -0.7075 0.0000
vn 0.0000 -0.0000 1.0000
vn 0.0000 0.0000 -1.0000
vn 0.0085 1.0000 0.0000
vn -0.0085 -1.0000 0.0000
vn 1.0000 -0.0085 0.0000
vn -1.0000 0.0085 0.0000
usemtl arrow
s 1
f 2/1/1 4/2/1 1/3/1
f 4/4/2 6/5/2 1/6/2
f 2/7/3 5/8/3 3/9/3
f 4/10/4 3/11/4 5/12/4
f 6/13/5 2/14/5 1/15/5
f 8/16/6 10/17/6 7/18/6
f 12/19/7 14/20/7 11/21/7
f 14/22/8 10/23/8 11/24/8
f 12/25/9 8/26/9 13/27/9
f 13/28/5 7/29/5 14/30/5
f 10/31/4 12/32/4 11/33/4
f 16/34/6 18/35/6 15/36/6
f 20/37/7 22/38/7 19/39/7
f 22/40/8 18/41/8 19/42/8
f 20/43/9 16/44/9 21/45/9
f 21/46/5 15/47/5 22/48/5
f 18/49/4 20/50/4 19/51/4
f 24/52/6 26/53/6 23/54/6
f 28/55/7 30/56/7 27/57/7
f 30/58/8 26/59/8 27/60/8
f 28/61/9 24/62/9 29/63/9
f 29/64/5 23/65/5 30/66/5
f 26/67/4 28/68/4 27/69/4
f 32/70/6 34/71/6 31/72/6
f 36/73/7 38/74/7 35/75/7
f 38/76/8 34/77/8 35/78/8
f 36/79/9 32/80/9 37/81/9
f 37/82/5 31/83/5 38/84/5
f 34/85/4 36/86/4 35/87/4
f 40/88/6 42/89/6 39/90/6
f 44/91/7 46/92/7 43/93/7
f 46/94/8 42/95/8 43/96/8
f 44/97/9 40/98/9 45/99/9
f 45/100/5 39/101/5 46/102/5
f 42/103/4 44/104/4 43/105/4
f 48/106/6 50/107/6 47/108/6
f 52/109/7 54/110/7 51/111/7
f 54/112/8 50/113/8 51/114/8
f 52/115/9 48/116/9 53/117/9
f 54/118/5 48/106/5 47/108/5
f 49/119/4 51/120/4 50/121/4
f 2/1/1 3/122/1 4/2/1
f 4/4/2 5/123/2 6/5/2
f 2/7/3 6/124/3 5/8/3
f 8/16/6 9/125/6 10/17/6
f 12/19/7 13/126/7 14/20/7
f 14/22/8 7/127/8 10/23/8
f 12/25/9 9/128/9 8/26/9
f 13/28/5 8/129/5 7/29/5
f 10/31/4 9/130/4 12/32/4
f 16/34/6 17/131/6 18/35/6
f 20/37/7 21/132/7 22/38/7
f 22/40/8 15/133/8 18/41/8
f 20/43/9 17/134/9 16/44/9
f 21/46/5 16/135/5 15/47/5
f 18/49/4 17/136/4 20/50/4
f 24/52/6 25/137/6 26/53/6
f 28/55/7 29/138/7 30/56/7
f 30/58/8 23/139/8 26/59/8
f 28/61/9 25/140/9 24/62/9
f 29/64/5 24/141/5 23/65/5
f 26/67/4 25/142/4 28/68/4
f 32/70/6 33/143/6 34/71/6
f 36/73/7 37/144/7 38/74/7
f 38/76/8 31/145/8 34/77/8
f 36/79/9 33/146/9 32/80/9
f 37/82/5 32/147/5 31/83/5
f 34/85/4 33/148/4 36/86/4
f 40/88/6 41/149/6 42/89/6
f 44/91/7 45/150/7 46/92/7
f 46/94/8 39/151/8 42/95/8
f 44/97/9 41/152/9 40/98/9
f 45/100/5 40/153/5 39/101/5
f 42/103/4 41/154/4 44/104/4
f 48/106/6 49/155/6 50/107/6
f 52/109/7 53/156/7 54/110/7
f 54/112/8 47/157/8 50/113/8
f 52/115/9 49/158/9 48/116/9
f 54/118/5 53/159/5 48/106/5
f 49/119/4 52/160/4 51/120/4
