# Blender v2.79 (sub 0) OBJ File: ''
# www.blender.org
mtllib tree2.mtl
o Leaves
v 10.864233 -13.953902 -4.708453
v 10.621042 -8.035224 -3.572352
v 16.719797 -5.735037 -5.361838
v 15.021441 -3.939523 -1.437681
v 23.578661 -8.692596 -0.199636
v 19.480944 -5.891030 -2.537479
v 12.355421 -5.121655 -4.223686
v 17.537560 -14.305292 -2.358325
v 18.425556 -9.763737 -3.367059
v 10.952797 -14.024062 4.538157
v 9.493039 -11.479298 2.758076
v 13.610191 -15.954565 3.342230
v 10.658783 -10.517654 -2.164812
v 6.416403 -4.582150 -2.536639
v 16.036215 -7.066206 5.068198
v 8.468303 -3.677841 3.117927
v 18.833008 -9.760844 3.994761
v 3.671263 -10.119810 -0.059392
v 10.329557 -14.859766 -0.192241
v 17.379618 -4.541123 3.306652
v 11.738268 -1.258555 1.300480
v 5.746324 -6.055864 0.997482
v 11.812691 -1.585034 -1.291346
v 15.478010 -16.438820 0.008793
v 13.331421 -14.571121 -2.069011
v 18.096426 -14.758785 1.378767
v -3.758651 -18.329296 -0.101311
v -8.963387 -13.864672 1.136499
v -4.548905 -19.676096 1.849420
v 1.446105 -22.361015 0.050631
v -0.880601 -21.915968 3.051311
v -7.941101 -1.508082 0.963925
v -6.158393 7.310789 -0.225148
v -8.992413 -2.336209 -0.296768
v 7.424361 -36.107094 -0.158752
v 5.263850 -29.462883 2.982946
v 4.551479 -39.785538 2.452918
v -5.734910 -21.660639 2.697186
v -11.234415 -14.455463 1.654072
v -11.358311 -8.272301 -0.083964
v -6.836076 -1.550986 -0.339239
v -9.179528 -8.387449 -1.533671
v 7.077009 -28.928570 -0.030954
v 0.748672 -39.779068 -2.601344
v 5.717945 -32.894035 -2.297775
v 4.507844 -39.792397 -2.504988
v -12.241816 -14.007967 -0.951023
v -5.495696 -22.012335 -3.014215
v -9.934937 -16.280592 -1.654926
v -3.291260 -20.162928 -2.582991
v 3.760286 -27.796883 -2.845732
v -1.135194 -39.781441 -0.065418
v 0.280167 -35.062366 0.022468
v 2.040391 -33.321899 2.315875
v -0.772384 -29.478420 -0.139397
v 5.949852 -39.810429 -0.065418
v -8.667903 -13.299706 -1.072414
v 0.522769 -28.824833 2.728700
v 0.665821 -29.246632 -3.073867
v 2.000752 -33.777493 -2.365438
v 0.730465 -39.772266 2.503392
v -8.046882 -21.940918 -0.105752
v -3.019917 -20.504223 1.562017
v -4.131322 -20.540646 -0.065411
v -3.123120 -20.679735 -1.692839
v -3.026563 -20.531216 1.545986
v 2.448001 -17.667490 0.489458
v -4.024013 -19.499557 -0.065411
v -3.059749 -20.422413 -1.845680
v 12.899508 -10.834414 -0.698271
v 12.608923 -10.607746 -0.065409
v 12.928247 -10.785537 0.567452
v 13.772612 -10.791263 0.567452
v -0.548738 -22.078409 -0.065413
v 5.071651 -18.850227 0.840709
v -1.414299 -21.463081 1.544102
v 13.018986 -10.770262 -0.573822
v 14.139791 -11.494301 -0.065409
v 13.001389 -10.746264 0.491269
v 13.727642 -11.196651 0.853736
v 14.080408 -10.988667 -0.065409
v 13.558449 -11.155489 -0.698271
v 12.720049 -10.599686 -0.065409
v -1.399786 -21.496361 -1.732774
v -1.433702 -21.514027 -1.692840
v -0.670075 -22.069065 -0.065413
v -1.399084 -21.455154 1.562016
v -7.583824 21.984919 14.084012
v -18.797262 17.837999 12.766022
v -7.605552 12.829316 15.397328
v -17.228931 31.383680 -0.007348
v 4.029959 24.430723 0.107370
v -1.289366 24.056187 -7.480423
v -14.340176 25.267334 -7.418038
v -7.574409 22.744015 -15.581318
v 12.918779 20.105623 -1.130138
v 14.805676 18.613789 -2.806252
v 3.278395 17.577486 -12.001214
v 14.822063 19.012611 0.089160
v -18.924599 7.683167 13.097047
v -7.596264 2.991289 15.383122
v -0.927477 25.102661 7.238115
v 3.512630 17.753321 12.380112
v 13.839611 18.364845 1.922040
v -29.452169 12.831261 9.133158
v -14.492251 25.770460 7.802451
v -25.269434 20.549812 4.535255
v -28.253901 12.771436 -0.065401
v -24.648809 20.052521 -4.331762
v -29.057571 12.837986 -8.878885
v -19.069813 18.073908 -13.708966
v 7.641794 -2.461579 -0.115777
v -7.594140 2.143678 0.021580
v -1.208935 4.227764 -6.300337
v -19.274433 -4.679210 -0.051598
v -14.103465 2.415337 -6.961973
v -7.626801 4.254457 -14.412427
v 8.970005 5.834703 -3.822808
v 3.774508 7.749407 -13.121215
v 9.767010 5.272398 4.269522
v 3.078768 8.184662 11.496363
v 0.576197 1.384391 7.393463
v -14.439535 -0.011344 7.687513
v -25.216208 5.165024 4.477218
v -26.105322 4.299574 -5.299167
v -18.788734 7.729443 -12.921079
v -7.595604 12.825507 -15.234920
vt 0.175725 0.791377
vt 0.226788 0.752929
vt 0.285413 0.792364
vt 0.725133 0.521212
vt 0.707691 0.627487
vt 0.700304 0.569670
vt 0.263631 0.749950
vt 0.676357 0.533807
vt 0.300631 0.875702
vt 0.213532 0.855061
vt 0.259708 0.834083
vt 0.883189 0.603808
vt 0.902906 0.581284
vt 0.890703 0.641057
vt 0.300631 0.819908
vt 0.204637 0.769625
vt 0.231334 0.694161
vt 0.405840 0.867246
vt 0.326404 0.825545
vt 0.433122 0.778460
vt 0.466635 0.790872
vt 0.446956 0.875770
vt 0.946529 0.523977
vt 0.935288 0.611123
vt 0.391831 0.897735
vt 0.466635 0.929941
vt 0.767475 0.560203
vt 0.164505 0.705539
vt 0.744308 0.905847
vt 0.744308 0.965442
vt 0.724548 0.925692
vt 0.767475 0.486218
vt 0.325794 0.872296
vt 0.323603 0.590472
vt 0.323603 0.681540
vt 0.308806 0.610072
vt 0.920031 0.382088
vt 0.948082 0.346905
vt 0.934954 0.421509
vt 0.739943 0.480896
vt 0.975447 0.354458
vt 0.975447 0.410356
vt 0.696544 0.491508
vt 0.291278 0.724773
vt 0.921095 0.668147
vt 0.946529 0.642708
vt 0.163531 0.794973
vt 0.185042 0.819043
vt 0.535617 0.941305
vt 0.538365 0.986111
vt 0.505486 0.967555
vt 0.125950 0.909561
vt 0.125969 0.942314
vt 0.093831 0.942314
vt 0.538365 0.900255
vt 0.957249 0.871919
vt 0.990306 0.792063
vt 0.990306 0.917913
vt 0.937871 0.472737
vt 0.984999 0.611361
vt 0.946903 0.597070
vt 0.995010 0.523977
vt 0.961909 0.634523
vt 0.977524 0.000189
vt 0.977524 0.139257
vt 0.959663 0.089570
vt 0.277866 0.656766
vt 0.308432 0.590472
vt 0.308432 0.676022
vt 0.250749 0.617174
vt 0.995010 0.649827
vt 0.618498 0.663728
vt 0.650451 0.595937
vt 0.634793 0.674671
vt 0.277144 0.445637
vt 0.267972 0.519505
vt 0.250749 0.474507
vt 0.312336 0.453895
vt 0.324904 0.358422
vt 0.324904 0.467373
vt 0.590516 0.892071
vt 0.585102 0.818434
vt 0.638647 0.916692
vt 0.610686 0.714941
vt 0.656511 0.689278
vt 0.675984 0.591426
vt 0.596205 0.480896
vt 0.646751 0.528537
vt 0.854796 0.088814
vt 0.879705 0.088789
vt 0.830091 0.149650
vt 0.276705 0.358422
vt 0.250778 0.377482
vt 0.814168 0.509315
vt 0.890564 0.457260
vt 0.852477 0.523600
vt 0.000187 0.970401
vt 0.014921 0.909561
vt 0.026985 0.970401
vt 0.816597 0.302799
vt 0.792953 0.227985
vt 0.846058 0.292287
vt 0.311962 0.392311
vt 0.311962 0.498824
vt 0.970367 0.781246
vt 0.968734 0.727822
vt 0.999813 0.772462
vt 0.778035 0.196371
vt 0.808592 0.141171
vt 0.559557 0.760705
vt 0.579360 0.711186
vt 0.579360 0.773426
vt 0.703622 0.924100
vt 0.724175 0.962448
vt 0.676357 0.930851
vt 0.817099 0.202404
vt 0.628192 0.789594
vt 0.633434 0.840893
vt 0.569384 0.521917
vt 0.571961 0.431429
vt 0.583433 0.527069
vt 0.724175 0.905847
vt 0.966666 0.677465
vt 0.999813 0.668525
vt 0.995792 0.707094
vt 0.896428 0.498013
vt 0.849347 0.452379
vt 0.944692 0.772254
vt 0.945092 0.702186
vt 0.312609 0.581156
vt 0.852471 0.400316
vt 0.889479 0.397131
vt 0.559557 0.646300
vt 0.583433 0.653675
vt 0.859199 0.905331
vt 0.894873 0.792063
vt 0.892977 0.898624
vt 0.505112 0.900255
vt 0.505112 0.987165
vt 0.467009 0.966856
vt 0.586281 0.728213
vt 0.921031 0.820881
vt 0.921031 0.915052
vt 0.573831 0.965054
vt 0.538739 0.905859
vt 0.573831 0.900255
vt 0.791432 0.294252
vt 0.867492 0.941353
vt 0.477631 0.999811
vt 0.275145 0.590095
vt 0.283789 0.515841
vt 0.919658 0.422904
vt 0.027359 0.951818
vt 0.057715 0.909561
vt 0.057715 0.958199
vt 0.541811 0.957714
vt 0.296343 0.587000
vt 0.675984 0.898577
vt 0.919658 0.000189
vt 0.860449 0.810627
vt 0.093457 0.919604
vt 0.093457 0.941166
vt 0.075756 0.950212
vt 0.943349 0.205464
vt 0.944634 0.136810
vt 0.959289 0.208079
vt 0.559557 0.707478
vt 0.583490 0.654052
vt 0.583490 0.710809
vt 0.265241 0.680396
vt 0.265241 0.688378
vt 0.258551 0.692176
vt 0.250825 0.688886
vt 0.938676 0.792063
vt 0.933063 0.851627
vt 0.921404 0.795219
vt 0.926394 0.194330
vt 0.266219 0.691674
vt 0.265615 0.676399
vt 0.276911 0.687746
vt 0.276911 0.677782
vt 0.250749 0.680970
vt 0.258335 0.676399
vt 0.920031 0.117507
vt 0.301005 0.812411
vt 0.309737 0.694161
vt 0.321263 0.694404
vt 0.272688 0.693146
vt 0.956876 0.792324
vt 0.956876 0.968190
vt 0.959289 0.000189
vt 0.945352 0.969199
vt 0.058089 0.939829
vt 0.058116 0.919991
vt 0.075795 0.909561
vt 0.321263 0.865825
vt 0.767055 0.760615
vt 0.767055 0.966447
vt 0.747775 0.770240
vt 0.517174 0.249034
vt 0.432118 0.345045
vt 0.423911 0.211520
vt 0.559184 0.431429
vt 0.468186 0.657107
vt 0.409746 0.574483
vt 0.454064 0.446321
vt 0.345324 0.483413
vt 0.411891 0.750414
vt 0.384008 0.765902
vt 0.325794 0.619152
vt 0.413343 0.777396
vt 0.329810 0.304117
vt 0.325794 0.170414
vt 0.553928 0.638711
vt 0.584728 0.192282
vt 0.522312 0.118296
vt 0.559184 0.727055
vt 0.431078 0.778083
vt 0.343940 0.431052
vt 0.850751 0.646194
vt 0.882815 0.791685
vt 0.778035 0.634789
vt 0.979220 0.208457
vt 0.979220 0.346527
vt 0.920031 0.256415
vt 0.535585 0.332826
vt 0.882815 0.523977
vt 0.072578 0.564279
vt 0.000187 0.599878
vt 0.001005 0.486889
vt 0.073972 0.672984
vt 0.159974 0.619995
vt 0.049727 0.411530
vt 0.158422 0.519408
vt 0.244235 0.577281
vt 0.147726 0.411165
vt 0.229450 0.358422
vt 0.250376 0.461274
vt 0.000187 0.358044
vt 0.133264 0.248481
vt 0.128687 0.328610
vt 0.498384 0.874512
vt 0.575572 0.778460
vt 0.575572 0.899877
vt 0.234840 0.267026
vt 0.236737 0.358044
vt 0.018630 0.713739
vt 0.084834 0.852964
vt 0.000187 0.909184
vt 0.778035 0.838093
vt 0.858825 0.792063
vt 0.858825 0.917391
vt 0.883189 0.703861
vt 0.944318 0.668525
vt 0.944318 0.786083
vt 0.163531 0.927528
vt 0.242716 0.876080
vt 0.242716 0.970383
vt 0.043945 0.694483
vt 0.066682 0.694161
vt 0.161945 0.810299
vt 0.163157 0.909184
vt 0.584728 0.012689
vt 0.426285 0.082523
vt 0.434320 0.000189
vt 0.747402 0.794242
vt 0.747402 0.905470
vt 0.676357 0.850137
vt 0.676425 0.760615
vt 0.243089 0.965319
vt 0.311098 0.876080
vt 0.323739 0.965319
vt 0.029838 0.118260
vt 0.132252 0.154914
vt 0.014448 0.238495
vt 0.467009 0.779639
vt 0.147759 0.050977
vt 0.271569 0.000189
vt 0.252995 0.096350
vt 0.215111 0.210805
vt 0.324646 0.083178
vt 0.250376 0.654332
vt 0.152088 0.693784
vt 0.325421 0.175466
vt 0.624918 0.480519
vt 0.707637 0.389823
vt 0.724894 0.475693
vt 0.324916 0.265883
vt 0.763826 0.627864
vt 0.763826 0.760238
vt 0.676357 0.718936
vt 0.777662 0.283970
vt 0.688256 0.256707
vt 0.598859 0.360217
vt 0.585102 0.225169
vt 0.705226 0.000189
vt 0.777662 0.152876
vt 0.674689 0.126707
vn -0.3343 0.1644 -0.9280
vn 0.4401 0.8598 0.2589
vn -0.2599 -0.0608 -0.9637
vn 0.3289 0.9045 -0.2715
vn 0.5443 -0.2819 -0.7901
vn -0.6497 -0.6493 -0.3955
vn 0.5168 0.0423 -0.8551
vn 0.7131 -0.0445 -0.6996
vn 0.3044 -0.2890 -0.9076
vn -0.5295 -0.4245 -0.7345
vn -0.2140 0.0822 0.9734
vn 0.1499 -0.2277 0.9621
vn -0.4490 -0.6480 0.6152
vn 0.5530 0.2584 0.7921
vn 0.6037 0.2671 0.7511
vn 0.3884 -0.2715 -0.8806
vn 0.4961 0.8572 -0.1379
vn -0.2920 -0.2662 -0.9186
vn -0.2771 -0.0496 -0.9596
vn -0.9988 -0.0345 -0.0341
vn 0.0366 0.5586 0.8286
vn 0.0374 0.5658 0.8237
vn 0.0367 0.5600 0.8277
vn 0.5389 0.8265 -0.1631
vn 0.0375 0.5673 0.8227
vn -0.8522 -0.1353 0.5055
vn -0.6207 0.7802 -0.0782
vn 0.5870 0.8052 -0.0846
vn -0.6172 0.7782 -0.1158
vn -0.5134 0.8223 0.2456
vn 0.2419 -0.2482 0.9380
vn 0.0218 0.9127 -0.4081
vn 0.4218 0.6162 -0.6651
vn -0.1634 0.6147 -0.7716
vn -0.2352 -0.8310 -0.5040
vn -0.2868 -0.3781 -0.8802
vn -0.4765 -0.3334 -0.8135
vn -0.7024 -0.4501 0.5513
vn -0.6832 -0.5688 0.4580
vn 0.0010 -0.7432 -0.6690
vn -0.2922 -0.9560 -0.0249
vn 0.0426 -0.9633 -0.2651
vn 0.6114 -0.5730 0.5458
vn -0.8924 0.4508 0.0188
vn 0.7038 -0.6850 -0.1884
vn 0.5972 -0.7807 -0.1840
vn 0.4310 -0.1584 0.8883
vn -0.5490 -0.1103 0.8285
vn -0.4376 -0.0104 0.8991
vn 0.3773 -0.8627 0.3368
vn 0.5962 0.5272 0.6055
vn 0.4535 0.8627 0.2237
vn -0.8169 0.2361 0.5262
vn 0.7277 -0.0852 0.6806
vn -0.0763 -0.0711 0.9945
vn -0.4924 0.2264 0.8404
vn -0.0445 0.4148 0.9088
vn -0.0928 0.2022 -0.9749
vn 0.1569 0.2368 0.9588
vn 0.6732 0.5436 0.5014
vn 0.0257 0.0255 -0.9993
vn -0.9242 0.0861 0.3722
vn -0.0020 0.2293 -0.9734
vn 0.5856 0.5610 -0.5851
vn -0.7785 0.2443 -0.5781
vn -0.5345 0.2062 -0.8196
vn -0.7412 -0.1206 0.6604
vn 0.8276 -0.3178 0.4627
vn -0.0150 -0.0950 -0.9954
vn -0.0685 -0.1141 0.9911
vn -0.0200 0.1999 -0.9796
vn 0.7599 -0.0664 0.6466
vn 0.8101 -0.3347 -0.4813
vn -0.8417 -0.3164 -0.4375
vn 0.6981 -0.1012 -0.7088
vn 0.0093 0.0373 -0.9993
vn 0.5149 -0.0268 -0.8568
vn -0.8425 0.1858 0.5056
vn -0.0771 0.2227 -0.9718
vn -0.7892 0.0738 0.6097
vn 0.1904 0.1216 0.9742
vn 0.6831 0.5802 0.4436
vn 0.1044 -0.0666 -0.9923
vn 0.0929 0.1198 -0.9884
vn -0.1565 -0.0399 0.9869
vn 0.9905 -0.0804 0.1119
vn -0.6470 -0.6263 0.4349
vn -0.7962 -0.6047 0.0209
vn -0.7576 -0.1611 -0.6326
vn 0.4678 0.6273 0.6226
vn -0.7022 -0.5949 -0.3912
vn 0.8539 0.0321 0.5194
vn -0.6951 -0.3961 -0.6000
vn 0.0512 -0.1395 -0.9889
vn 0.7507 -0.1571 0.6417
vn -0.8330 -0.3224 0.4496
vn -0.6739 -0.7262 0.1359
vn 0.5215 0.7303 -0.4414
vn 0.6715 0.1807 -0.7186
vn -0.5376 0.1848 -0.8227
vn -0.7650 -0.0803 0.6390
vn 0.8158 0.0497 -0.5761
vn 0.7882 0.5626 0.2493
vn -0.7886 0.2259 0.5719
vn -0.0599 -0.0480 0.9971
vn 0.5635 0.7116 -0.4197
vn 0.0133 0.0264 0.9996
vn 0.6401 0.5554 -0.5309
vn -0.8425 0.1955 -0.5019
vn 0.1948 0.2846 0.9387
vn -0.0251 0.0148 -0.9996
vn 0.0498 0.0506 -0.9975
vn -0.6140 -0.5902 -0.5241
vn -0.6217 -0.5405 0.5668
vn -0.0483 -0.9973 0.0553
vn -0.2611 0.7315 0.6299
vn -0.1885 0.8265 -0.5305
vn 0.5521 0.8326 -0.0447
vn 0.0068 0.9992 -0.0387
vn 0.3699 -0.7839 0.4986
vn 0.0998 0.1708 0.9802
vn -0.5457 -0.8379 0.0099
vn -0.5381 -0.8423 0.0315
vn 0.0353 0.9588 -0.2819
vn -0.0057 0.2731 0.9620
vn -0.5482 0.8359 -0.0279
vn -0.4803 -0.8770 0.0118
vn 0.4906 -0.7139 -0.4996
vn 0.4951 -0.5974 -0.6308
vn -0.0786 0.1196 0.9897
vn 0.7151 -0.6985 0.0276
vn -0.4407 -0.8924 -0.0976
vn -0.5036 -0.8583 0.0982
vn -0.5136 0.8240 0.2392
vn -0.5229 -0.8501 0.0624
vn 0.4156 0.8530 -0.3158
vn 0.0736 0.0089 -0.9973
vn -0.1666 0.1404 0.9760
vn 0.3017 0.9182 -0.2568
vn 0.0697 0.7825 -0.6187
vn 0.0889 0.9700 -0.2261
vn 0.3808 0.8712 -0.3099
vn 0.2782 0.8514 -0.4447
vn 0.4441 0.7018 -0.5570
vn 0.5011 0.7042 -0.5029
vn 0.4466 0.8891 0.1000
vn -0.2141 0.0345 0.9762
vn -0.1985 -0.0016 0.9801
vn 0.5499 0.8270 -0.1170
vn 0.4378 0.8712 0.2222
vn 0.3557 0.6705 0.6512
vn 0.5047 0.6784 0.5339
vn 0.4713 0.7213 0.5075
vn 0.3078 0.9432 0.1251
vn -0.3372 0.0349 0.9408
vn 0.0640 0.8209 0.5675
vn 0.0628 0.8838 0.4636
vn -0.3139 0.6202 0.7189
vn -0.4868 0.6195 0.6158
vn -0.4893 0.6378 0.5949
vn -0.4987 0.6268 0.5987
vn -0.9011 0.4168 -0.1201
vn -0.8173 0.5692 -0.0891
vn -0.9120 0.4010 -0.0863
vn -0.8728 0.4809 0.0832
vn -0.4868 0.5710 -0.6610
vn -0.3896 0.7380 -0.5510
vn -0.5067 0.7318 -0.4558
vn -0.5783 0.6577 -0.4828
vn -0.2511 -0.8150 -0.5222
vn 0.4522 -0.7693 -0.4514
vn 0.1458 -0.9739 -0.1738
vn 0.1441 -0.9826 -0.1173
vn 0.7963 -0.3230 -0.5114
vn 0.2770 -0.4286 -0.8600
vn 0.2222 -0.9230 -0.3142
vn 0.3095 -0.9180 -0.2479
vn 0.9068 -0.4183 0.0525
vn 0.8910 -0.2045 0.4053
vn 0.9201 -0.3740 -0.1166
vn 0.9726 -0.2049 -0.1100
vn 0.7110 -0.0964 0.6966
vn 0.7109 -0.0962 0.6967
vn 0.5119 -0.5740 0.6391
vn 0.4708 -0.5763 0.6680
vn 0.4652 -0.5299 0.7091
vn 0.0942 -0.9530 0.2880
vn 0.4930 -0.8462 0.2024
vn 0.0869 -0.9766 -0.1969
vn -0.2808 -0.9354 0.2149
vn -0.4036 -0.6719 0.6210
vn -0.5242 -0.6346 0.5680
vn -0.4888 -0.6742 0.5537
vn -0.4771 -0.5883 0.6529
vn -0.8973 -0.4265 -0.1141
vn -0.9521 -0.2937 0.0846
vn -0.9442 -0.3094 0.1133
vn -0.8233 -0.5539 0.1239
vn -0.5170 -0.4768 -0.7109
vn -0.3186 -0.8180 -0.4789
vn -0.2036 -0.8048 -0.5576
vn -0.2017 -0.6040 -0.7710
vn -0.1605 -0.0937 -0.9826
vn -0.3995 -0.0804 -0.9132
vn -0.1670 -0.0794 -0.9828
vn -0.1471 -0.0342 -0.9885
vn 0.6125 0.1200 -0.7813
vn 0.1408 -0.0951 -0.9855
vn 0.2337 0.1217 -0.9647
vn 0.2985 -0.0339 -0.9538
vn 0.2017 0.1386 0.9696
vn 0.3426 -0.0010 0.9395
vn 0.3021 -0.1012 0.9479
vn 0.7110 -0.0966 0.6965
usemtl tree.001
s 1
f 1/1/1 2/2/1 3/3/1
f 4/4/2 5/5/2 6/6/2
f 7/7/3 3/3/3 2/2/3
f 4/4/4 6/6/4 3/8/4
f 5/9/5 8/10/5 9/11/5
f 10/12/6 11/13/6 12/14/6
f 9/11/7 6/15/7 5/9/7
f 6/15/8 9/11/8 3/3/8
f 8/10/9 1/1/9 3/3/9
f 13/16/10 14/17/10 2/2/10
f 15/18/11 16/19/11 10/20/11
f 12/21/12 17/22/12 15/18/12
f 11/13/13 18/23/13 19/24/13
f 20/25/14 15/18/14 17/22/14
f 17/22/15 5/26/15 20/25/15
f 3/3/16 9/11/16 8/10/16
f 5/5/17 4/4/17 20/27/17
f 14/17/18 13/16/18 18/28/18
f 2/2/19 14/17/19 7/7/19
f 2/29/20 1/30/20 13/31/20
f 15/18/21 20/25/22 16/19/23
f 20/27/24 4/4/24 21/32/24
f 21/33/25 16/19/23 20/25/22
f 10/34/26 16/35/26 11/36/26
f 16/37/27 21/38/27 22/39/27
f 21/32/28 4/4/28 23/40/28
f 23/41/29 22/39/29 21/38/29
f 22/39/30 23/41/30 14/42/30
f 15/18/31 10/20/31 12/21/31
f 4/4/32 3/8/32 7/43/32
f 7/43/33 23/40/33 4/4/33
f 23/44/34 7/7/34 14/17/34
f 24/45/35 19/24/35 25/46/35
f 19/47/36 18/28/36 13/16/36
f 13/16/37 25/48/37 19/47/37
f 25/49/38 13/50/38 1/51/38
f 19/24/39 12/14/39 11/13/39
f 8/52/40 24/53/40 25/54/40
f 12/14/41 19/24/41 24/45/41
f 8/55/42 25/49/42 1/51/42
f 17/56/43 12/57/43 5/58/43
f 22/39/44 14/42/44 18/59/44
f 26/60/45 8/61/45 5/62/45
f 8/61/46 26/60/46 24/63/46
f 5/64/47 12/65/47 26/66/47
f 22/67/48 11/68/48 16/69/48
f 11/68/49 22/67/49 18/70/49
f 26/60/50 12/71/50 24/63/50
f 27/72/51 28/73/51 29/74/51
f 30/75/52 29/76/52 31/77/52
f 32/78/53 33/79/53 34/80/53
f 35/81/54 36/82/54 37/83/54
f 36/82/55 31/84/55 38/85/55
f 39/86/56 34/87/56 40/88/56
f 31/84/57 29/74/57 38/85/57
f 34/89/58 41/90/58 42/91/58
f 29/74/59 28/73/59 39/86/59
f 43/92/60 31/77/60 36/93/60
f 44/94/61 45/95/61 46/96/61
f 39/97/62 40/98/62 47/99/62
f 48/100/63 49/101/63 50/102/63
f 51/103/64 50/104/64 30/75/64
f 52/105/65 53/106/65 44/107/65
f 47/108/66 40/109/66 42/91/66
f 54/110/67 55/111/67 53/112/67
f 56/113/68 35/114/68 37/115/68
f 47/108/69 42/91/69 57/116/69
f 36/82/70 58/117/70 54/118/70
f 49/101/71 57/116/71 50/102/71
f 41/119/72 33/120/72 32/121/72
f 46/122/73 35/114/73 56/113/73
f 55/123/74 59/124/74 60/125/74
f 46/96/75 45/95/75 35/126/75
f 44/94/76 60/127/76 45/95/76
f 42/91/77 41/90/77 57/116/77
f 61/128/78 54/129/78 53/106/78
f 49/101/79 47/108/79 57/116/79
f 28/130/80 32/78/80 34/80/80
f 28/73/81 34/87/81 39/86/81
f 43/92/82 30/75/82 31/77/82
f 59/131/83 51/132/83 45/95/83
f 48/100/84 50/102/84 51/132/84
f 37/83/85 36/82/85 54/118/85
f 57/133/86 32/121/86 28/134/86
f 58/135/87 62/136/87 55/137/87
f 38/138/88 39/139/88 49/140/88
f 53/106/89 55/123/89 60/125/89
f 30/141/90 27/72/90 29/74/90
f 55/137/91 48/142/91 59/143/91
f 35/144/92 43/145/92 36/146/92
f 62/147/93 49/101/93 48/100/93
f 60/127/94 59/131/94 45/95/94
f 57/133/95 41/119/95 32/121/95
f 54/148/96 58/135/96 55/137/96
f 39/139/97 47/149/97 49/140/97
f 50/104/98 28/150/98 27/151/98
f 45/95/99 51/132/99 43/152/99
f 40/109/100 34/89/100 42/91/100
f 38/153/101 49/154/101 62/155/101
f 45/156/102 43/145/102 35/144/102
f 50/104/103 57/157/103 28/150/103
f 61/128/104 53/106/104 52/105/104
f 36/82/105 38/85/105 58/117/105
f 50/104/106 27/151/106 30/75/106
f 37/83/107 54/118/107 61/158/107
f 51/103/108 30/75/108 43/92/108
f 53/106/109 60/125/109 44/107/109
f 29/74/110 39/86/110 38/85/110
f 34/89/111 33/159/111 41/90/111
f 59/131/112 48/100/112 51/132/112
f 55/137/113 62/136/113 48/142/113
f 58/135/114 38/160/114 62/136/114
f 63/161/115 64/162/115 65/163/115
f 66/164/116 67/165/116 68/166/116
f 68/167/117 67/168/117 69/169/117
f 70/170/118 71/171/118 72/172/118
f 70/170/119 72/172/119 73/173/119
f 74/174/120 75/175/120 76/176/120
f 76/177/121 67/165/121 66/164/121
f 77/178/122 78/179/122 79/180/122
f 79/180/123 78/179/123 80/181/123
f 81/182/124 82/183/124 73/173/124
f 76/177/125 75/184/125 67/165/125
f 67/185/126 79/186/126 77/187/126
f 79/180/127 83/188/127 77/178/127
f 84/189/128 75/175/128 74/174/128
f 84/189/129 77/190/129 75/175/129
f 75/184/130 79/191/130 67/165/130
f 77/190/131 79/192/131 75/175/131
f 65/163/132 85/193/132 86/194/132
f 87/195/133 63/161/133 86/194/133
f 67/185/134 77/187/134 69/196/134
f 63/161/135 65/163/135 86/194/135
f 82/183/136 70/170/136 73/173/136
f 69/197/137 77/198/137 84/199/137
f 88/200/138 89/201/138 90/202/138
f 91/203/139 92/204/139 93/205/139
f 93/205/140 94/206/140 91/203/140
f 94/206/141 93/205/141 95/207/141
f 92/204/142 96/208/142 93/205/142
f 96/208/143 97/209/143 98/210/143
f 98/210/144 93/205/144 96/208/144
f 93/205/145 98/210/145 95/207/145
f 92/204/146 99/211/146 96/208/146
f 100/212/147 90/202/147 89/201/147
f 90/202/148 100/212/148 101/213/148
f 96/208/149 99/211/149 97/209/149
f 92/204/150 102/214/150 99/211/150
f 102/215/151 88/200/151 103/216/151
f 103/217/152 99/211/152 102/214/152
f 99/211/153 103/217/153 104/218/153
f 92/204/154 91/203/154 102/214/154
f 89/201/155 105/219/155 100/212/155
f 106/220/156 102/221/156 91/222/156
f 102/223/157 106/224/157 88/225/157
f 88/200/158 106/226/158 89/201/158
f 106/220/159 91/222/159 107/227/159
f 107/228/160 89/229/160 106/230/160
f 89/229/161 107/228/161 105/231/161
f 105/231/162 107/228/162 108/232/162
f 107/228/163 91/233/163 109/234/163
f 109/234/164 108/232/164 107/228/164
f 108/232/165 109/234/165 110/235/165
f 91/233/166 94/236/166 109/234/166
f 94/236/167 95/237/167 111/238/167
f 111/238/168 109/234/168 94/236/168
f 109/234/169 111/238/169 110/235/169
f 112/239/170 113/240/170 114/241/170
f 113/242/171 115/243/171 116/244/171
f 116/245/172 114/241/172 113/240/172
f 114/241/173 116/245/173 117/246/173
f 97/247/174 118/248/174 119/249/174
f 118/250/175 112/251/175 114/252/175
f 114/253/176 119/254/176 118/255/176
f 119/256/177 114/257/177 117/258/177
f 97/247/178 99/259/178 118/248/178
f 99/259/179 104/260/179 120/261/179
f 120/261/180 118/248/180 99/259/180
f 118/248/181 120/261/181 112/262/181
f 104/263/182 121/264/182 120/265/183
f 121/266/184 101/267/184 122/268/184
f 122/268/185 120/269/185 121/266/185
f 120/270/186 122/271/186 112/272/186
f 101/273/187 123/274/187 122/275/187
f 123/276/188 115/243/188 113/242/188
f 113/240/189 122/275/189 123/274/189
f 122/275/190 113/240/190 112/239/190
f 101/273/191 100/277/191 123/274/191
f 100/277/192 105/278/192 124/279/192
f 124/279/193 123/274/193 100/277/193
f 123/274/194 124/279/194 115/280/194
f 105/278/195 108/281/195 124/279/195
f 108/232/196 110/235/196 125/282/196
f 125/282/197 124/283/197 108/232/197
f 124/279/198 125/284/198 115/280/198
f 110/285/199 126/286/199 125/287/199
f 126/288/200 117/246/200 116/245/200
f 116/245/201 125/284/201 126/288/201
f 125/289/202 116/290/202 115/291/202
f 117/292/203 126/286/203 127/293/203
f 126/286/204 110/285/204 111/294/204
f 111/294/205 127/293/205 126/286/205
f 127/293/206 111/294/206 95/295/206
f 97/296/207 119/297/207 98/298/207
f 119/297/208 117/292/208 127/293/208
f 127/293/209 98/298/209 119/297/209
f 98/298/210 127/293/210 95/295/210
f 88/200/211 90/202/211 103/216/211
f 90/202/212 101/213/212 121/264/212
f 121/264/213 103/216/213 90/202/213
f 103/216/214 121/264/182 104/263/182
